PathFileType	4	(X/Y/Z)	OpenSim_Sub07_CSBaseline_Accel.trc
DataRate	CameraRate	NumFrames	NumMarkers	Units	OrigDataRate	OrigDataStartFrame	OrigNumFrames
100	100	38	8	m	100	974	7788
Frame#	Time	torso_imu_offset_imu	pelvis_imu_offset_imu	tibia_r_imu_offset_imu	femur_r_imu_offset_imu	tibia_l_imu_offset_imu	femur_l_imu_offset_imu	toes_r_imu_offset_imu	toes_l_imu_offset_imu
				X1	Y1	Z1	X2	Y2	Z2	X3	Y3	Z3	X4	Y4	Z4	X5	Y5	Z5	X6	Y6	Z6	X7	Y7	Z7	X8		Y8	Z8	

974	9.73000000	-10.82609606	0.94337642	6.98802658	11.41161344	0.57164993	3.64672233	11.79381631	3.48481492	-2.56486692	9.82183948	2.65321883	-1.99673052	14.99016872	3.00156328	1.74902805	9.86772963	3.96490524	-0.79305545	3.36670186	0.22356567	10.47868765	6.96112979	2.55504349	12.02254590
975	9.74000000	-10.45108633	1.03121575	6.49330487	11.05765666	0.34036740	3.65285221	12.39508361	4.13376030	-2.28292777	9.88308702	2.13252513	-1.95915047	15.54306854	2.95002513	1.77796743	10.36077001	2.90897884	-0.86211524	4.77927286	1.58848381	6.58240888	8.05508537	4.86262707	14.11055320
976	9.75000000	-9.88047927	1.01804110	6.57451554	10.62351356	0.07132400	3.69347114	10.18001387	4.05808127	-4.62805674	10.35948249	1.89445210	1.07360737	14.83235602	2.82689106	0.62411841	10.44577817	2.29722651	-0.84265464	7.92048938	2.40142117	9.02543223	7.00373140	3.03557610	13.90633505
977	9.76000000	-9.74868792	1.14941338	6.53404228	10.28399871	0.19307663	3.87802780	7.89685026	6.36620356	-4.27760777	10.09601262	1.71914455	1.33404975	14.81658958	1.46140633	-1.04874219	10.63920400	2.50181100	-1.11246905	4.76711785	0.45344629	8.57032101	8.66532974	-0.84032359	11.04169306
978	9.77000000	-9.67343716	1.26432559	6.32680816	10.24952375	0.22264903	4.20055021	7.38994261	6.75969019	-4.14533430	10.35680799	0.89496958	-1.51522388	14.81685398	-0.46791404	-0.98712294	10.27668032	1.99317949	-1.04606867	5.40374104	1.00041936	8.75144336	12.93776403	2.70892660	11.85418181
979	9.78000000	-9.41705393	1.34650086	6.24703219	10.26002326	0.11088193	4.33467623	7.44486518	6.83197779	-3.32358704	10.77065056	-0.68232751	-2.15240075	14.26481314	-2.11485281	0.31058573	9.81657563	1.21015059	-0.77059233	5.86738810	1.67255574	8.45313933	13.27570725	5.96075631	13.96590105
980	9.79000000	-9.13924259	1.38056809	6.08707622	10.13997967	0.18103375	4.35739508	8.58699726	6.84454097	-2.22645893	10.71058695	-2.67548793	-1.08026595	12.99065139	-3.28127026	0.91419866	9.93115401	1.57267411	-0.83243035	5.54492709	1.49730575	8.49275580	12.98959779	7.05385534	14.86194184
981	9.80000000	-9.11065791	1.44398655	5.89569016	9.89384064	0.33917261	4.33059846	10.94655240	4.21928638	-1.24055911	10.43310503	-3.89040506	-0.73740008	11.67670737	-3.86376502	0.35785162	10.09990060	1.58582988	-0.79969708	5.29613696	1.34253270	8.63731453	12.20382834	5.29806184	13.76968945
982	9.81000000	-9.09355927	1.50545424	5.74095772	9.87078266	0.35910095	4.21243586	12.58901939	-0.22084350	-1.00428391	9.97910513	-3.69283247	-0.49262862	10.43404298	-3.98507223	0.11851727	10.72355694	1.51393988	-0.76169360	5.29712762	1.35551397	8.57282939	10.37462828	7.03873048	12.24093152
983	9.82000000	-9.09684605	1.58810506	5.71327888	9.83531851	0.28296932	3.97767293	11.83642446	-1.95405296	-0.38996431	9.47806093	-2.66872024	-0.15340500	8.44596792	-4.37939612	1.22007778	11.27060144	1.83132578	-0.69225655	5.28940485	1.54289003	8.42794289	7.90086646	8.74764711	11.06558731
984	9.83000000	-9.04871521	1.62969384	5.79199250	9.65110294	0.26209297	3.77291346	11.36222599	-1.98401407	-0.02635143	9.30797220	-1.53315066	0.06300274	6.53939420	-5.78404500	2.64361706	12.35686653	2.50223021	-0.40495695	5.03769722	1.75945461	8.57171673	0.11292432	8.05129251	8.48136849
985	9.84000000	-9.04390601	1.54713776	5.87016419	9.47100493	0.31656337	3.58849442	10.69813404	-0.10786099	0.19648526	9.44242414	-0.58333003	0.17056656	5.21844503	-7.70028580	3.65106852	13.06344501	3.29103453	-0.08484544	4.88405383	1.85157531	8.73029797	4.32372497	0.58687864	11.08824725
986	9.85000000	-9.07784157	1.49242030	5.82325196	9.41273147	0.47561750	3.35562340	10.07742977	1.64861183	-0.43587002	9.60741230	0.29059911	0.12626604	4.06767538	-9.36063247	3.71300637	12.49396446	3.53603332	0.09652064	4.94428684	1.77677371	8.74431219	33.43766577	-1.74090854	23.32478962
987	9.86000000	-9.06710682	1.36207657	5.78574479	9.51758112	0.70463198	3.25615078	9.23397591	3.17710902	-1.42075225	9.48446869	0.95343204	0.05801174	2.74583522	-10.85957651	3.12844611	11.70431898	3.20672390	0.36476637	5.09510086	1.45899878	8.48945618	25.56546333	9.49528202	23.85475628
988	9.87000000	-9.17633741	1.28706233	5.80301421	9.65685744	0.96573895	3.19476032	8.62362716	4.53650442	-2.00111015	9.39832457	1.53400365	-0.08943809	1.63113292	-11.63741573	2.70883985	12.13852341	2.77460215	0.69369392	5.32420636	1.31573588	8.59896120	10.54513016	7.64643147	18.72722849
989	9.88000000	-9.40106654	1.21275874	5.89196706	9.80126386	1.26989233	3.07343135	8.93720660	5.37209493	-2.14340538	9.48434351	1.91665653	-0.24468523	1.25050609	-10.96950683	2.26908231	11.98268944	1.98892628	0.70417966	5.24758883	1.41344756	8.59876125	2.05650880	7.73010463	12.08643372
990	9.89000000	-9.53398627	1.14051447	5.96984425	9.78924627	1.54807490	2.97934640	9.86606921	5.21926639	-2.07172417	9.63961352	1.97721366	-0.19372772	1.19811994	-8.68808743	2.18615477	11.84982273	1.39651916	0.51782819	5.21581921	1.37101626	8.55937257	-3.04449019	9.11963352	10.27578314
991	9.90000000	-9.43675881	1.04557725	5.99619514	9.62964865	1.85222953	2.83732061	10.40746944	4.22311792	-1.77229478	9.69803944	1.91177706	-0.16494415	1.11942425	-6.20346428	2.58079475	11.80248401	1.01352698	0.53955650	5.34237565	1.33111947	8.46444999	-3.56054234	5.78080497	7.51528980
992	9.91000000	-9.14938649	0.89142977	5.99020358	9.31659303	2.09251093	2.69278604	10.27812906	2.88931916	-1.56596535	9.76763984	1.77781483	-0.20980939	0.67367972	-4.53178377	3.43396701	10.67038419	1.32470004	0.55588924	5.52535163	1.35688438	8.31343456	-1.94102167	5.17557136	7.68225486
993	9.92000000	-8.83155122	0.81538205	6.05850674	9.08501398	2.09413082	2.61713886	9.98658580	1.64867516	-1.31448901	9.86478463	1.39655039	-0.00041531	0.40448938	-3.73682068	4.45649174	9.97956108	1.74516006	0.74862167	5.28144969	1.32492176	8.50064113	-0.26325401	3.93802323	7.61688105
994	9.93000000	-8.58329109	0.78637380	6.13367536	8.97396922	1.98288506	2.52550171	9.96300112	0.64871652	-0.90599707	9.79362820	0.85332128	0.07141047	0.38221363	-3.52403837	5.22366905	9.38600220	2.05694305	0.96094670	5.08730891	1.04535096	8.63285956	0.65328749	3.34196798	7.74061205
995	9.94000000	-8.41121524	0.80901079	5.99343463	8.89194609	1.83879014	2.50012189	9.97318795	0.10091992	-0.53611678	9.54406274	0.15542439	0.03486162	0.47152686	-3.74676551	5.56242621	9.11169894	2.24173692	1.06657059	5.04884405	0.99085192	8.60129551	0.83130732	3.67255977	7.76548030
996	9.95000000	-8.30999079	0.86758082	5.90954127	8.89024793	1.61885803	2.50888204	9.68820979	-0.13066836	-0.34586164	9.29703613	-0.44136288	0.03078630	0.75081732	-3.98452055	5.49287841	8.77024474	2.52964902	0.89201122	5.24871252	1.07948947	8.47553801	0.47222140	4.12640740	7.58078874
997	9.96000000	-8.22005739	0.93407584	5.90945002	8.85864376	1.42988917	2.52465972	9.97774416	-0.57638359	-0.33952179	9.09869046	-0.84242272	0.09045745	1.20971146	-3.97523378	5.27770252	8.76610093	2.42482913	0.69864493	4.86397070	0.95376761	8.63121510	-0.20860937	4.32973758	7.27984726
998	9.97000000	-8.12951877	0.95188532	5.95131735	8.83722085	1.09186174	2.51208446	10.05066822	-0.74537041	-0.45946279	8.91110755	-1.12999719	0.15802402	1.44704026	-3.64998477	5.32113549	8.50431581	2.64389818	0.45618234	4.80782803	0.60685980	8.64734586	-0.37527029	3.57249767	7.18560098
999	9.98000000	-8.02334137	0.90591411	6.02434064	8.78361879	0.88183006	2.46577648	9.82447040	-0.82951884	-0.65552970	8.91404373	-1.35961497	0.05679452	1.88352154	-2.80980377	5.93700625	8.27559648	2.56178986	0.22066716	4.98254289	0.60690610	8.52410484	0.64593795	2.35686327	7.36459332
1000	9.99000000	-7.93973516	0.89327851	6.11810751	8.75261373	0.77208291	2.42396974	9.64673485	-0.14708795	-1.00161354	8.95190015	-1.56745975	-0.14769064	2.55360328	-1.28666486	6.55587286	8.25976131	2.00585567	0.14652403	5.11255787	0.81774764	8.49196336	2.07835807	2.08562377	7.82009693
1001	10	-7.84985737	0.85384263	6.09441701	8.71702919	0.50154759	2.38884086	9.51161885	1.15082275	-0.79846225	8.98328037	-1.78640355	-0.19622286	3.12541504	0.49970420	5.86728278	7.88485793	1.89307867	-0.03297810	5.00289601	0.80682086	8.61403746	3.15500104	2.42097180	8.37731257
1002	10.01000000	-7.83293653	0.81962619	6.20761127	8.70570747	0.63670777	2.32359893	9.78170106	1.75793812	-0.60614828	8.99932454	-1.80731810	-0.21215285	3.53543275	0.75392655	3.38351486	7.82250512	1.63333417	-0.16048440	5.16491516	0.92111217	8.42941864	4.30117909	2.28275164	8.73257227
1003	10.02000000	-7.87089694	0.75989274	6.24220310	8.68564719	0.69525811	2.20610767	9.72500443	2.31144782	-0.67142197	9.13168906	-1.74470612	-0.13260894	4.22803151	-1.62894950	0.30116956	7.78666779	1.39301380	-0.25227063	5.19686449	1.13233945	8.51926513	5.35131642	1.70969653	9.35891383
1004	10.03000000	-7.81063420	0.74270924	6.16760174	8.67747695	0.77514734	2.12116110	9.85800106	2.87896578	-0.47043200	9.35185849	-1.58570349	0.05126186	5.13249150	-5.29448671	-1.56390282	7.76891103	1.13175344	-0.33626555	5.16370755	1.22653045	8.41316820	6.76657607	0.55757270	10.48126622
1005	10.04000000	-7.79433063	0.75778840	6.15729033	8.68246768	0.76815421	2.08120356	9.99904172	2.79415902	-0.37681883	9.44209166	-1.32340636	0.21518442	6.37578403	-8.26083783	-1.81961538	7.60865190	0.89006628	-0.32716532	5.12605732	1.23122363	8.47593665	8.27295317	-0.38505525	11.78657923
1006	10.05000000	-7.74557909	0.86003273	6.24077886	8.77803024	1.03954476	2.03001528	9.96418013	1.84845680	-0.33074660	9.49695772	-1.00112774	0.34920583	7.75754857	-9.73477284	-1.39746558	7.30193013	0.79784830	-0.19704938	5.05949203	1.36406042	8.56646704	9.61269571	-0.37620390	12.84983095
1007	10.06000000	-7.77339837	0.98251489	6.31160043	8.95560178	1.08159683	2.08227279	10.08598801	1.61381157	-0.50634278	9.69049412	-0.66808149	0.49038729	8.67214798	-9.50724395	-0.31497210	7.23121218	0.70440527	0.01148978	4.95333923	1.60598876	8.59889380	11.17258724	-0.34644729	13.09962265
1008	10.07000000	-7.97640339	1.11691566	6.40334801	9.13052083	1.15133298	2.14153705	9.98596240	1.66129256	-0.44889779	9.70755324	-0.38860532	0.60662571	8.71252884	-8.24818509	0.68647095	7.41244826	0.65097784	0.14600902	5.10833311	1.40054924	8.52762723	11.46787098	-0.68269692	12.53790774
1009	10.08000000	-8.22019956	1.27796160	6.42318832	9.25403338	1.25426905	2.16264133	9.97510067	1.10566892	-0.39124570	9.56923920	-0.16613816	0.61555422	8.13231399	-6.52865583	1.80457474	7.61117833	0.84014033	0.09683423	5.54616161	1.28571623	8.28683474	11.79718879	-0.90092994	12.15022506
1010	10.09000000	-8.29175960	1.41223900	6.47099081	9.28665296	1.31542344	2.11415548	9.94594527	0.30965219	-0.37920275	9.45883929	0.03919694	0.59049184	7.71209470	-4.64437628	2.73987390	7.75645321	1.15437891	-0.04568173	5.11814988	1.28872464	8.53212048	13.55728923	-0.52602686	12.62836351
1011	10.10000000	-8.29683959	1.46637678	6.54762431	9.17778981	1.24978011	2.10073927	10.08233116	-0.16676086	-0.05458725	9.28123465	0.25677359	0.51396022	8.17070209	-3.32921271	2.88610512	7.92653322	1.47311012	0.02135912	5.01404310	1.17859058	8.66297677	15.73976515	0.93386527	13.43453910
